<?xml version="1.0" encoding="UTF-8"?><svg id="Camada_2" xmlns="http://www.w3.org/2000/svg" viewBox="0 0 1280.25 1280.25"><g id="Camada_1-2"><path d="m496.13,1280.13c300.44,0,544-243.56,544-544,0-185.57-150.43-336-336-336-114.88,0-208,93.12-208,208,0,70.69,57.31,128,128,128,44.18,0,80-35.82,80-80,0-26.51-21.49-48-48-48-17.67,0-32,14.33-32,32,0,8.84,7.16,16,16,16s16-7.16,16-16" style="fill:none; stroke:#000; stroke-miterlimit:10; stroke-width:.25px;"/><path d="m.12,496.13c0,300.44,243.56,544,544,544,185.57,0,336-150.43,336-336,0-114.88-93.12-208-208-208-70.69,0-128,57.31-128,128,0,44.18,35.82,80,80,80,26.51,0,48-21.49,48-48,0-17.67-14.33-32-32-32-8.84,0-16,7.16-16,16s7.16,16,16,16" style="fill:none; stroke:#000; stroke-miterlimit:10; stroke-width:.25px;"/><path d="m784.12.12C483.68.12,240.13,243.68,240.13,544.12c0,185.57,150.43,336,336,336,114.88,0,208-93.12,208-208,0-70.69-57.31-128-128-128-44.18,0-80,35.82-80,80,0,26.51,21.49,48,48,48,17.67,0,32-14.33,32-32,0-8.84-7.16-16-16-16s-16,7.16-16,16" style="fill:none; stroke:#000; stroke-miterlimit:10; stroke-width:.25px;"/><path d="m1280.13,784.12c0-300.44-243.56-544-544-544-185.57,0-336,150.43-336,336,0,114.88,93.12,208,208,208,70.69,0,128-57.31,128-128,0-44.18-35.82-80-80-80-26.51,0-48,21.49-48,48,0,17.67,14.33,32,32,32,8.84,0,16-7.16,16-16s-7.16-16-16-16" style="fill:none; stroke:#000; stroke-miterlimit:10; stroke-width:.25px;"/></g></svg>