<svg version="1.2" xmlns="http://www.w3.org/2000/svg" viewBox="0 0 480 138" width="480" height="138"><style>.a{fill:none;stroke:#1d1d1b;stroke-miterlimit:10;stroke-width:15.3}</style><path class="a" d="m53.7 99.7c0-8.5 6.8-15.4 15.3-15.4 8.4 0 15.3 6.9 15.3 15.4 0 16.9-13.7 30.6-30.6 30.6-25.4 0-46-20.6-46-46 0-42.3 34.3-76.6 76.6-76.6m100.6 130.3v-46c0-21.2-17.1-38.3-38.3-38.3-21.2 0-38.3 17.1-38.3 38.3 0 21.2 17.1 38.3 38.3 38.3m301.8-38.3c0-21.2-17.2-38.3-38.3-38.3-21.2 0-38.4 17.1-38.4 38.3 0 21.2 17.2 38.3 38.4 38.3m-201.2-130.3v92c0 21.2 17.1 38.3 38.3 38.3 21.1 0 38.3-17.1 38.3-38.3 0-21.2-17.2-38.3-38.3-38.3m100.6 84.3v-92m124.5 92v-138m-116.9 7.7h-7.6c-21.2 0-38.3 17.1-38.3 38.3v92"/></svg>