<?xml version="1.0" encoding="UTF-8"?><svg id="Camada_1" xmlns="http://www.w3.org/2000/svg" viewBox="0 0 512 512"><path d="m442.45,69.83l-51.83,51.69c-29.82-29.89-71-48.4-116.45-48.4s-86.79,18.58-116.59,48.56l-51.89-51.62C148.72,26.78,208.32,0,274.18,0s125.25,26.69,168.28,69.83Z" style="fill:#e7513c;"/><path d="m511.83,237.65c0,25.52-4.02,50.09-11.47,73.12-30.83,95.47-120.45,164.53-226.18,164.53v-73.12c64.46,0,120.4-37.27,147.37-91.4h-147.37v-73.12h237.65Z" style="fill:#4fb163;"/><path d="m274.01,512C123.01,511.31.17,387.88.17,236.87.17,164.21,28.33,95.64,79.47,43.79l52.07,51.34c-37.55,38.08-58.24,88.42-58.24,141.74,0,110.88,90.19,201.5,201.05,202.01l-.33,73.12Z" style="fill:#3054bf;"/></svg>